<?xml version="1.0" encoding="UTF-8"?>
<svg width="440" height="900" viewBox="0 0 440 900" xmlns="http://www.w3.org/2000/svg">
<defs>
<style>
.fs { font-family: -apple-system, BlinkMacSystemFont, "Inter", "Helvetica Neue", Arial, sans-serif; }
</style>
</defs>

<!-- BG -->
<rect x="0" y="0" width="440" height="900" rx="42" fill="#E8E6E0"/>

<!-- Notch -->
<rect x="180" y="0" width="80" height="22" rx="11" fill="#1A1A1A"/>

<!-- Status bar -->
<text x="40" y="48" class="fs" font-size="12" font-weight="500" fill="#1A1A1A">9:41</text>
<rect x="382" y="40" width="22" height="11" rx="2" fill="none" stroke="#1A1A1A" stroke-width="1"/>
<rect x="384" y="42" width="15" height="7" rx="1" fill="#1A1A1A"/>

<!-- TOP NAV -->
<rect x="40" y="72" width="36" height="36" rx="9" fill="#1A1A1A"/>
<path d="M 68 83 A 12 12 0 1 0 68 97" fill="none" stroke="#F4F2EC" stroke-width="4.5" stroke-linecap="butt"/>
<rect x="60" y="87.5" width="10" height="5" fill="#F4F2EC"/>
<circle cx="395" cy="90" r="16" fill="#1A1A1A"/>
<text x="395" y="95" text-anchor="middle" class="fs" font-size="13" font-weight="500" fill="#D4E85C">J</text>

<!-- Date header with slashes -->
<text x="40" y="140" class="fs" font-size="10" font-weight="500" fill="#999" letter-spacing="3">DI</text>
<text x="62" y="140" class="fs" font-size="10" font-weight="500" fill="#D4E85C" letter-spacing="1">/</text>
<text x="70" y="140" class="fs" font-size="10" font-weight="500" fill="#999" letter-spacing="3">19 MRZ</text>
<text x="126" y="140" class="fs" font-size="10" font-weight="500" fill="#D4E85C" letter-spacing="1">/</text>
<text x="134" y="140" class="fs" font-size="10" font-weight="500" fill="#999" letter-spacing="3">WK 12</text>

<!-- Greeting -->
<text x="40" y="180" class="fs" font-size="24" font-weight="500" fill="#1A1A1A" letter-spacing="-0.02em">Let's go, Julius.</text>

<!-- STREAK HERO CARD -->
<rect x="40" y="205" width="360" height="196" rx="20" fill="#1A1A1A"/>

<!-- Status labels -->
<text x="60" y="235" class="fs" font-size="9" font-weight="500" fill="#D4E85C" letter-spacing="3">STREAK</text>
<text x="112" y="235" class="fs" font-size="9" font-weight="500" fill="#666" letter-spacing="1">/</text>
<text x="120" y="235" class="fs" font-size="9" font-weight="500" fill="#999" letter-spacing="3">ACTIVE</text>
<text x="168" y="235" class="fs" font-size="9" font-weight="500" fill="#666" letter-spacing="1">/</text>
<text x="176" y="235" class="fs" font-size="9" font-weight="500" fill="#999" letter-spacing="3">PUSHING</text>

<!-- Big number -->
<text x="60" y="345" class="fs" font-size="134" font-weight="500" fill="#F4F2EC" letter-spacing="-0.08em" font-stretch="condensed">17</text>

<!-- Right info -->
<text x="220" y="280" class="fs" font-size="11" font-weight="500" fill="#F4F2EC">tage in folge</text>
<line x1="220" y1="290" x2="360" y2="290" stroke="#333" stroke-width="0.5"/>
<text x="220" y="310" class="fs" font-size="8" font-weight="500" fill="#666" letter-spacing="2">BIS REKORD</text>
<text x="220" y="335" class="fs" font-size="28" font-weight="500" fill="#D4E85C" letter-spacing="-0.04em" font-stretch="condensed">+ 6</text>

<!-- Progress bar -->
<text x="60" y="370" class="fs" font-size="8" font-weight="500" fill="#666" letter-spacing="2">17</text>
<text x="356" y="370" text-anchor="end" class="fs" font-size="8" font-weight="500" fill="#666" letter-spacing="2">23</text>
<rect x="60" y="376" width="296" height="3" rx="1.5" fill="#2E2E2E"/>
<rect x="60" y="376" width="219" height="3" rx="1.5" fill="#D4E85C"/>

<!-- STATS LABEL -->
<text x="40" y="440" class="fs" font-size="10" font-weight="500" fill="#1A1A1A" letter-spacing="3">STATS</text>
<text x="84" y="440" class="fs" font-size="10" font-weight="500" fill="#D4E85C" letter-spacing="1">/</text>
<text x="92" y="440" class="fs" font-size="10" font-weight="500" fill="#999" letter-spacing="3">7 TAGE</text>

<!-- Stats row -->
<rect x="40" y="460" width="114" height="96" rx="14" fill="#F4F2EC"/>
<text x="54" y="484" class="fs" font-size="8" font-weight="500" fill="#999" letter-spacing="2">WOCHE</text>
<text x="54" y="522" class="fs" font-size="32" font-weight="500" fill="#1A1A1A" letter-spacing="-0.04em" font-stretch="condensed">4<tspan fill="#D4E85C">/</tspan>5</text>
<text x="54" y="542" class="fs" font-size="9" font-weight="400" fill="#666">Sessions</text>

<rect x="163" y="460" width="114" height="96" rx="14" fill="#F4F2EC"/>
<text x="177" y="484" class="fs" font-size="8" font-weight="500" fill="#999" letter-spacing="2">VOLUMEN</text>
<text x="177" y="522" class="fs" font-size="32" font-weight="500" fill="#1A1A1A" letter-spacing="-0.04em" font-stretch="condensed">12.4<tspan font-size="16" fill="#999">T</tspan></text>
<text x="177" y="542" class="fs" font-size="9" font-weight="400" fill="#666">Kilogramm</text>

<rect x="286" y="460" width="114" height="96" rx="14" fill="#D4E85C"/>
<text x="300" y="484" class="fs" font-size="8" font-weight="500" fill="#4A5220" letter-spacing="2">PRs</text>
<text x="300" y="522" class="fs" font-size="32" font-weight="500" fill="#1A1A1A" letter-spacing="-0.04em" font-stretch="condensed">+ 2</text>
<text x="300" y="542" class="fs" font-size="9" font-weight="400" fill="#4A5220">Neue Rekorde</text>

<!-- TODAY LABEL -->
<text x="40" y="595" class="fs" font-size="10" font-weight="500" fill="#1A1A1A" letter-spacing="3">HEUTE</text>
<text x="82" y="595" class="fs" font-size="10" font-weight="500" fill="#D4E85C" letter-spacing="1">/</text>
<text x="90" y="595" class="fs" font-size="10" font-weight="500" fill="#999" letter-spacing="3">GEPLANT</text>

<!-- Workout card -->
<rect x="40" y="615" width="360" height="92" rx="14" fill="#F4F2EC"/>
<text x="60" y="645" class="fs" font-size="20" font-weight="500" fill="#1A1A1A" letter-spacing="-0.02em" font-stretch="condensed">PUSH DAY</text>
<text x="60" y="672" class="fs" font-size="9" font-weight="500" fill="#666" letter-spacing="1.5">5 ÜBUNGEN</text>
<text x="130" y="672" class="fs" font-size="9" font-weight="500" fill="#D4E85C" letter-spacing="1">/</text>
<text x="140" y="672" class="fs" font-size="9" font-weight="500" fill="#666" letter-spacing="1.5">45 MIN</text>
<text x="188" y="672" class="fs" font-size="9" font-weight="500" fill="#D4E85C" letter-spacing="1">/</text>
<text x="198" y="672" class="fs" font-size="9" font-weight="500" fill="#666" letter-spacing="1.5">BRUST</text>

<rect x="290" y="638" width="96" height="46" rx="23" fill="#1A1A1A"/>
<text x="330" y="665" text-anchor="middle" class="fs" font-size="10" font-weight="500" fill="#D4E85C" letter-spacing="2.5">START</text>
<text x="365" y="665" class="fs" font-size="12" font-weight="500" fill="#D4E85C">→</text>

<!-- WEEK LABEL -->
<text x="40" y="745" class="fs" font-size="10" font-weight="500" fill="#1A1A1A" letter-spacing="3">WOCHE</text>
<text x="86" y="745" class="fs" font-size="10" font-weight="500" fill="#D4E85C" letter-spacing="1">/</text>
<text x="94" y="745" class="fs" font-size="10" font-weight="500" fill="#999" letter-spacing="3">LETZTE 7 TAGE</text>

<!-- Calendar -->
<g transform="translate(40, 765)">
<text x="23" y="10" text-anchor="middle" class="fs" font-size="8" font-weight="500" fill="#999">MI</text>
<rect x="4" y="16" width="38" height="42" rx="8" fill="#1A1A1A"/>
<text x="23" y="43" text-anchor="middle" class="fs" font-size="16" font-weight="500" fill="#F4F2EC">13</text>

<text x="71" y="10" text-anchor="middle" class="fs" font-size="8" font-weight="500" fill="#999">DO</text>
<rect x="52" y="16" width="38" height="42" rx="8" fill="#1A1A1A"/>
<text x="71" y="43" text-anchor="middle" class="fs" font-size="16" font-weight="500" fill="#F4F2EC">14</text>

<text x="119" y="10" text-anchor="middle" class="fs" font-size="8" font-weight="500" fill="#999">FR</text>
<rect x="100" y="16" width="38" height="42" rx="8" fill="none" stroke="#c9c6be" stroke-width="1.5" stroke-dasharray="3,3"/>
<text x="119" y="43" text-anchor="middle" class="fs" font-size="16" font-weight="500" fill="#999">15</text>

<text x="167" y="10" text-anchor="middle" class="fs" font-size="8" font-weight="500" fill="#999">SA</text>
<rect x="148" y="16" width="38" height="42" rx="8" fill="#1A1A1A"/>
<text x="167" y="43" text-anchor="middle" class="fs" font-size="16" font-weight="500" fill="#F4F2EC">16</text>

<text x="215" y="10" text-anchor="middle" class="fs" font-size="8" font-weight="500" fill="#999">SO</text>
<rect x="196" y="16" width="38" height="42" rx="8" fill="#1A1A1A"/>
<text x="215" y="43" text-anchor="middle" class="fs" font-size="16" font-weight="500" fill="#F4F2EC">17</text>

<text x="263" y="10" text-anchor="middle" class="fs" font-size="8" font-weight="500" fill="#999">MO</text>
<rect x="244" y="16" width="38" height="42" rx="8" fill="#1A1A1A"/>
<text x="263" y="43" text-anchor="middle" class="fs" font-size="16" font-weight="500" fill="#F4F2EC">18</text>

<text x="311" y="10" text-anchor="middle" class="fs" font-size="8" font-weight="500" fill="#1A1A1A">DI</text>
<rect x="292" y="16" width="38" height="42" rx="8" fill="#D4E85C" stroke="#1A1A1A" stroke-width="2"/>
<text x="311" y="43" text-anchor="middle" class="fs" font-size="16" font-weight="500" fill="#1A1A1A">19</text>
<circle cx="311" cy="66" r="2" fill="#1A1A1A"/>
</g>

<!-- BOTTOM NAV -->
<line x1="40" y1="855" x2="400" y2="855" stroke="#c9c6be" stroke-width="0.5"/>

<rect x="52" y="864" width="50" height="32" rx="16" fill="#1A1A1A"/>
<text x="77" y="882" text-anchor="middle" class="fs" font-size="9" font-weight="500" fill="#D4E85C" letter-spacing="1.5">HOME</text>
<text x="155" y="882" text-anchor="middle" class="fs" font-size="9" font-weight="500" fill="#999" letter-spacing="1.5">LOG</text>
<text x="235" y="882" text-anchor="middle" class="fs" font-size="9" font-weight="500" fill="#999" letter-spacing="1.5">STATS</text>
<text x="315" y="882" text-anchor="middle" class="fs" font-size="9" font-weight="500" fill="#999" letter-spacing="1.5">DU</text>
</svg>
