<?xml version="1.0" encoding="UTF-8"?>
<svg width="440" height="960" viewBox="0 0 440 960" xmlns="http://www.w3.org/2000/svg">
<defs>
  <style>
    .fs { font-family: -apple-system, BlinkMacSystemFont, "Inter", "Helvetica Neue", Arial, sans-serif; }
  </style>
  <clipPath id="phoneClip"><rect x="0" y="0" width="440" height="960" rx="42"/></clipPath>
</defs>

<g clip-path="url(#phoneClip)">
<rect x="0" y="0" width="440" height="960" fill="#E8E6E0"/>

<!-- Notch -->
<rect x="180" y="0" width="80" height="22" rx="11" fill="#1A1A1A"/>

<!-- Status bar -->
<text x="40" y="48" class="fs" font-size="12" font-weight="500" fill="#1A1A1A">9:41</text>
<rect x="382" y="40" width="22" height="11" rx="2" fill="none" stroke="#1A1A1A" stroke-width="1"/>
<rect x="384" y="42" width="15" height="7" rx="1" fill="#1A1A1A"/>

<!-- TOP NAV -->
<rect x="40" y="72" width="36" height="36" rx="9" fill="#1A1A1A"/>
<path d="M 68 83 A 12 12 0 1 0 68 97" fill="none" stroke="#F4F2EC" stroke-width="4.5"/>
<rect x="60" y="87.5" width="10" height="5" fill="#F4F2EC"/>
<circle cx="395" cy="90" r="16" fill="#1A1A1A"/>
<text x="395" y="95" text-anchor="middle" class="fs" font-size="13" font-weight="500" fill="#D4E85C">J</text>

<!-- Date strip -->
<text x="40" y="136" class="fs" font-size="10" font-weight="500" fill="#999" letter-spacing="3">DI</text>
<text x="62" y="136" class="fs" font-size="10" font-weight="500" fill="#D4E85C" letter-spacing="1">/</text>
<text x="70" y="136" class="fs" font-size="10" font-weight="500" fill="#999" letter-spacing="3">19 MRZ</text>
<text x="126" y="136" class="fs" font-size="10" font-weight="500" fill="#D4E85C" letter-spacing="1">/</text>
<text x="134" y="136" class="fs" font-size="10" font-weight="500" fill="#999" letter-spacing="3">STREAK 17</text>
<text x="194" y="136" class="fs" font-size="10" font-weight="500" fill="#D4E85C" letter-spacing="1">/</text>
<text x="202" y="136" class="fs" font-size="10" font-weight="500" fill="#999" letter-spacing="3">+6 BIS PR</text>

<!-- Greeting -->
<text x="40" y="178" class="fs" font-size="26" font-weight="500" fill="#1A1A1A" letter-spacing="-0.02em">Go time, Julius.</text>
<text x="40" y="200" class="fs" font-size="13" font-weight="400" fill="#666">Du trainierst diese Woche härter als 94% der letzten 12.</text>

<!-- ============================================= -->
<!-- SPLIT HERO -->
<!-- ============================================= -->

<!-- Left: Workout Quick-Start (black) -->
<rect x="40" y="220" width="222" height="168" rx="22" fill="#1A1A1A"/>
<text x="60" y="246" class="fs" font-size="9" font-weight="500" fill="#D4E85C" letter-spacing="3">HEUTE</text>
<text x="96" y="246" class="fs" font-size="9" font-weight="500" fill="#666" letter-spacing="1">/</text>
<text x="104" y="246" class="fs" font-size="9" font-weight="500" fill="#999" letter-spacing="3">BRUST</text>
<text x="60" y="280" class="fs" font-size="26" font-weight="500" fill="#F4F2EC" letter-spacing="-0.04em" font-stretch="condensed">PUSH DAY</text>
<text x="60" y="302" class="fs" font-size="11" font-weight="400" fill="#999">4 Übungen · 45 Min · 12.4 T</text>

<!-- Mini exercise icons -->
<circle cx="68" cy="324" r="10" fill="#2a2a2a"/>
<text x="68" y="328" text-anchor="middle" class="fs" font-size="10" font-weight="500" fill="#D4E85C">1</text>
<circle cx="94" cy="324" r="10" fill="#2a2a2a"/>
<text x="94" y="328" text-anchor="middle" class="fs" font-size="10" font-weight="500" fill="#999">2</text>
<circle cx="120" cy="324" r="10" fill="#2a2a2a"/>
<text x="120" y="328" text-anchor="middle" class="fs" font-size="10" font-weight="500" fill="#999">3</text>
<circle cx="146" cy="324" r="10" fill="#2a2a2a"/>
<text x="146" y="328" text-anchor="middle" class="fs" font-size="10" font-weight="500" fill="#999">4</text>

<!-- START button -->
<rect x="60" y="350" width="182" height="28" rx="14" fill="#D4E85C"/>
<text x="151" y="368" text-anchor="middle" class="fs" font-size="11" font-weight="500" fill="#1A1A1A" letter-spacing="2.5">START WORKOUT</text>
<text x="228" y="369" class="fs" font-size="12" font-weight="500" fill="#1A1A1A">→</text>

<!-- Right: Pulse card (heartbeat wave) -->
<rect x="270" y="220" width="130" height="168" rx="22" fill="#F4F2EC"/>
<text x="286" y="244" class="fs" font-size="8" font-weight="500" fill="#999" letter-spacing="2.5">PULSE</text>
<text x="316" y="244" class="fs" font-size="8" font-weight="500" fill="#D4E85C" letter-spacing="1">/</text>
<text x="324" y="244" class="fs" font-size="8" font-weight="500" fill="#666" letter-spacing="2.5">WOCHE</text>

<!-- Pulse wave -->
<g transform="translate(286, 280)">
  <polyline points="0,12 10,12 16,12 22,12 26,2 30,24 34,-4 38,28 42,12 52,12 62,12 68,12 72,4 76,22 80,0 84,26 88,12 96,12"
            fill="none" stroke="#1A1A1A" stroke-width="2" stroke-linejoin="round" stroke-linecap="round"/>
  <!-- Second wave echo -->
  <polyline points="0,12 10,12 16,12 22,12 26,6 30,20 34,0 38,24 42,12 52,12"
            fill="none" stroke="#D4E85C" stroke-width="2" stroke-linejoin="round" stroke-linecap="round" opacity="0.5"/>
</g>

<!-- Big stat -->
<text x="286" y="330" class="fs" font-size="30" font-weight="500" fill="#1A1A1A" letter-spacing="-0.04em" font-stretch="condensed">+ 12%</text>
<text x="286" y="350" class="fs" font-size="10" font-weight="400" fill="#666">Intensität vs.</text>
<text x="286" y="365" class="fs" font-size="10" font-weight="400" fill="#666">letzte Woche</text>

<!-- Dots indicator -->
<circle cx="286" cy="378" r="3" fill="#D4E85C"/>
<circle cx="296" cy="378" r="3" fill="#c9c6be"/>
<circle cx="306" cy="378" r="3" fill="#c9c6be"/>

<!-- ============================================= -->
<!-- PERSONAL INSIGHTS (horizontal row) -->
<!-- ============================================= -->
<text x="40" y="418" class="fs" font-size="10" font-weight="500" fill="#1A1A1A" letter-spacing="3">INSIGHTS</text>
<text x="118" y="418" class="fs" font-size="10" font-weight="500" fill="#D4E85C" letter-spacing="1">/</text>
<text x="126" y="418" class="fs" font-size="10" font-weight="500" fill="#999" letter-spacing="3">PERSÖNLICH</text>
<text x="380" y="418" text-anchor="end" class="fs" font-size="9" font-weight="500" fill="#666" letter-spacing="2">MEHR →</text>

<!-- Insight card 1 -->
<rect x="40" y="434" width="168" height="124" rx="18" fill="#F4F2EC"/>
<text x="56" y="456" class="fs" font-size="8" font-weight="500" fill="#4A5220" letter-spacing="2">BENCH PR</text>
<!-- Mini sparkline -->
<polyline points="56,506 70,500 84,492 98,486 112,478 126,468 140,458 154,450 168,442 182,436 192,434"
          fill="none" stroke="#D4E85C" stroke-width="2" stroke-linejoin="round"/>
<circle cx="192" cy="434" r="3" fill="#D4E85C"/>
<text x="56" y="528" class="fs" font-size="22" font-weight="500" fill="#1A1A1A" letter-spacing="-0.03em" font-stretch="condensed">+ 8 kg</text>
<text x="56" y="548" class="fs" font-size="10" font-weight="400" fill="#666">in den letzten 4 Wochen</text>

<!-- Insight card 2 -->
<rect x="216" y="434" width="184" height="124" rx="18" fill="#1A1A1A"/>
<text x="232" y="456" class="fs" font-size="8" font-weight="500" fill="#D4E85C" letter-spacing="2">VOLUMEN-TREND</text>
<!-- Mini bars -->
<g transform="translate(232, 476)">
  <rect x="0" y="28" width="14" height="12" rx="2" fill="#444"/>
  <rect x="20" y="22" width="14" height="18" rx="2" fill="#555"/>
  <rect x="40" y="26" width="14" height="14" rx="2" fill="#444"/>
  <rect x="60" y="14" width="14" height="26" rx="2" fill="#666"/>
  <rect x="80" y="8" width="14" height="32" rx="2" fill="#888"/>
  <rect x="100" y="4" width="14" height="36" rx="2" fill="#bbb"/>
  <rect x="120" y="0" width="14" height="40" rx="2" fill="#D4E85C"/>
</g>
<text x="232" y="538" class="fs" font-size="18" font-weight="500" fill="#F4F2EC" letter-spacing="-0.03em" font-stretch="condensed">7 Wochen steigend</text>
<text x="232" y="554" class="fs" font-size="10" font-weight="400" fill="#999">stärker als je zuvor.</text>

<!-- ============================================= -->
<!-- BODY MAP — Muscle Freshness -->
<!-- ============================================= -->
<text x="40" y="588" class="fs" font-size="10" font-weight="500" fill="#1A1A1A" letter-spacing="3">KÖRPER</text>
<text x="82" y="588" class="fs" font-size="10" font-weight="500" fill="#D4E85C" letter-spacing="1">/</text>
<text x="90" y="588" class="fs" font-size="10" font-weight="500" fill="#999" letter-spacing="3">MUSKEL-STATUS</text>

<rect x="40" y="604" width="360" height="164" rx="20" fill="#F4F2EC"/>

<!-- Body silhouette (simplified front view) -->
<g transform="translate(78, 618)">
  <!-- Head -->
  <circle cx="36" cy="14" r="10" fill="#c9c6be"/>
  <!-- Neck -->
  <rect x="32" y="22" width="8" height="6" fill="#c9c6be"/>
  <!-- Torso outline base (gray) -->
  <path d="M 16 30 Q 10 34 10 46 L 12 80 Q 14 98 24 122 L 48 122 Q 58 98 60 80 L 62 46 Q 62 34 56 30 L 44 28 L 28 28 Z"
        fill="#c9c6be"/>
  <!-- Chest (trained - ready again - lime) -->
  <path d="M 18 34 Q 24 30 36 30 Q 48 30 54 34 Q 54 46 48 52 Q 36 56 24 52 Q 18 46 18 34 Z"
        fill="#D4E85C"/>
  <!-- Shoulders (mid-recovery gray) -->
  <ellipse cx="12" cy="40" rx="6" ry="10" fill="#999"/>
  <ellipse cx="60" cy="40" rx="6" ry="10" fill="#999"/>
  <!-- Abs (fresh) -->
  <rect x="28" y="58" width="16" height="20" rx="3" fill="#D4E85C" opacity="0.7"/>
  <!-- Arms (trained recently - dark gray) -->
  <ellipse cx="6" cy="60" rx="5" ry="16" fill="#666"/>
  <ellipse cx="66" cy="60" rx="5" ry="16" fill="#666"/>
  <!-- Forearms -->
  <ellipse cx="2" cy="86" rx="4" ry="12" fill="#999"/>
  <ellipse cx="70" cy="86" rx="4" ry="12" fill="#999"/>
  <!-- Quads/legs base -->
  <path d="M 16 100 Q 22 118 28 124 L 44 124 Q 50 118 56 100 Z" fill="#c9c6be"/>
</g>

<!-- Legend / annotations on right side -->
<g transform="translate(212, 628)">
  <!-- Chest call-out -->
  <circle cx="0" cy="8" r="4" fill="#D4E85C"/>
  <text x="10" y="12" class="fs" font-size="11" font-weight="500" fill="#1A1A1A">Brust · bereit</text>
  <text x="10" y="26" class="fs" font-size="9" font-weight="400" fill="#666">4 Tage Pause · prime für PR</text>

  <!-- Shoulders -->
  <circle cx="0" cy="48" r="4" fill="#999"/>
  <text x="10" y="52" class="fs" font-size="11" font-weight="500" fill="#1A1A1A">Schultern · recovery</text>
  <text x="10" y="66" class="fs" font-size="9" font-weight="400" fill="#666">gestern trainiert · 24h</text>

  <!-- Legs overdue -->
  <circle cx="0" cy="88" r="4" fill="none" stroke="#1A1A1A" stroke-width="1.5" stroke-dasharray="2,2"/>
  <text x="10" y="92" class="fs" font-size="11" font-weight="500" fill="#1A1A1A">Beine · überfällig</text>
  <text x="10" y="106" class="fs" font-size="9" font-weight="400" fill="#666">6 Tage ohne Reiz</text>

  <!-- CTA -->
  <rect x="0" y="118" width="160" height="28" rx="14" fill="#1A1A1A"/>
  <text x="80" y="136" text-anchor="middle" class="fs" font-size="10" font-weight="500" fill="#D4E85C" letter-spacing="2">LEG DAY PLANEN →</text>
</g>

<!-- ============================================= -->
<!-- WEEK RHYTHM (Heatmap) -->
<!-- ============================================= -->
<text x="40" y="798" class="fs" font-size="10" font-weight="500" fill="#1A1A1A" letter-spacing="3">RHYTHMUS</text>
<text x="118" y="798" class="fs" font-size="10" font-weight="500" fill="#D4E85C" letter-spacing="1">/</text>
<text x="126" y="798" class="fs" font-size="10" font-weight="500" fill="#999" letter-spacing="3">28 TAGE</text>

<!-- Heatmap 28 cells -->
<g transform="translate(40, 816)">
  <!-- Week 1 -->
  <rect x="0" y="0" width="16" height="16" rx="3" fill="#D4E85C" opacity="0.5"/>
  <rect x="18" y="0" width="16" height="16" rx="3" fill="#c9c6be"/>
  <rect x="36" y="0" width="16" height="16" rx="3" fill="#D4E85C" opacity="0.8"/>
  <rect x="54" y="0" width="16" height="16" rx="3" fill="#1A1A1A" opacity="0.2"/>
  <rect x="72" y="0" width="16" height="16" rx="3" fill="#D4E85C" opacity="0.6"/>
  <rect x="90" y="0" width="16" height="16" rx="3" fill="#D4E85C" opacity="0.9"/>
  <rect x="108" y="0" width="16" height="16" rx="3" fill="#c9c6be"/>

  <!-- Week 2 -->
  <rect x="0" y="18" width="16" height="16" rx="3" fill="#D4E85C" opacity="0.7"/>
  <rect x="18" y="18" width="16" height="16" rx="3" fill="#D4E85C" opacity="0.5"/>
  <rect x="36" y="18" width="16" height="16" rx="3" fill="#c9c6be"/>
  <rect x="54" y="18" width="16" height="16" rx="3" fill="#D4E85C" opacity="0.9"/>
  <rect x="72" y="18" width="16" height="16" rx="3" fill="#D4E85C" opacity="0.6"/>
  <rect x="90" y="18" width="16" height="16" rx="3" fill="#c9c6be"/>
  <rect x="108" y="18" width="16" height="16" rx="3" fill="#D4E85C" opacity="0.8"/>

  <!-- Week 3 -->
  <rect x="0" y="36" width="16" height="16" rx="3" fill="#D4E85C" opacity="0.9"/>
  <rect x="18" y="36" width="16" height="16" rx="3" fill="#D4E85C" opacity="0.6"/>
  <rect x="36" y="36" width="16" height="16" rx="3" fill="#c9c6be"/>
  <rect x="54" y="36" width="16" height="16" rx="3" fill="#D4E85C"/>
  <rect x="72" y="36" width="16" height="16" rx="3" fill="#D4E85C" opacity="0.8"/>
  <rect x="90" y="36" width="16" height="16" rx="3" fill="#D4E85C" opacity="0.9"/>
  <rect x="108" y="36" width="16" height="16" rx="3" fill="#c9c6be"/>

  <!-- Week 4 (current) -->
  <rect x="0" y="54" width="16" height="16" rx="3" fill="#D4E85C"/>
  <rect x="18" y="54" width="16" height="16" rx="3" fill="#c9c6be"/>
  <rect x="36" y="54" width="16" height="16" rx="3" fill="#D4E85C" opacity="0.9"/>
  <rect x="54" y="54" width="16" height="16" rx="3" fill="#D4E85C"/>
  <!-- Today -->
  <rect x="72" y="54" width="16" height="16" rx="3" fill="#1A1A1A" stroke="#D4E85C" stroke-width="1.5"/>
  <rect x="90" y="54" width="16" height="16" rx="3" fill="none" stroke="#c9c6be" stroke-width="1" stroke-dasharray="2,2"/>
  <rect x="108" y="54" width="16" height="16" rx="3" fill="none" stroke="#c9c6be" stroke-width="1" stroke-dasharray="2,2"/>

  <!-- Stats on right -->
  <text x="148" y="8" class="fs" font-size="9" font-weight="500" fill="#999" letter-spacing="2">GESAMT</text>
  <text x="148" y="32" class="fs" font-size="22" font-weight="500" fill="#1A1A1A" letter-spacing="-0.03em" font-stretch="condensed">19 von 28</text>
  <text x="148" y="48" class="fs" font-size="9" font-weight="400" fill="#666">68% Konsistenz · All-time-high</text>

  <!-- Arrow indicator -->
  <text x="148" y="68" class="fs" font-size="9" font-weight="500" fill="#4A5220" letter-spacing="2">↗ +12% vs. letzter Monat</text>
</g>

<!-- Bottom tab bar -->
<line x1="40" y1="934" x2="400" y2="934" stroke="#c9c6be" stroke-width="0.5"/>
<rect x="52" y="943" width="50" height="32" rx="16" fill="#1A1A1A"/>
<text x="77" y="961" text-anchor="middle" class="fs" font-size="9" font-weight="500" fill="#D4E85C" letter-spacing="1.5">HOME</text>
<text x="155" y="961" text-anchor="middle" class="fs" font-size="9" font-weight="500" fill="#999" letter-spacing="1.5">LOG</text>
<text x="235" y="961" text-anchor="middle" class="fs" font-size="9" font-weight="500" fill="#999" letter-spacing="1.5">STATS</text>
<text x="315" y="961" text-anchor="middle" class="fs" font-size="9" font-weight="500" fill="#999" letter-spacing="1.5">DU</text>
</g>
</svg>
